<svg xmlns="http://www.w3.org/2000/svg" viewBox="0 0 44 44" class="design-iconfont">
  <defs>
    <linearGradient x1="100%" y1="0%" x2="0%" y2="100%" id="h0mhjdd89__vzmwbjpgpa">
      <stop stop-color="#7DCFCC" offset="0%"/>
      <stop stop-color="#129D94" offset="100%"/>
    </linearGradient>
  </defs>
  <path d="M20,0 C8.975,0 0,8.975 0,20 C0,31.03 8.97,40 20,40 C31.03,40 40,31.03 40,20 C40,8.975 31.03,0 20,0 Z M29.65,16.7 L18.1625,28.315 L18.15,28.325 C18.145,28.325 18.145,28.3325 18.1425,28.335 C18.05,28.425 17.9375,28.48 17.83,28.54 C17.7775,28.57 17.735,28.615 17.68,28.6375 C17.3332584,28.776549 16.9460941,28.7756528 16.6,28.635 C16.5425,28.61 16.495,28.56 16.4425,28.53 C16.335,28.47 16.225,28.4175 16.1325,28.3275 L16.125,28.315 C16.125,28.31 16.1175,28.31 16.115,28.3075 L10.465,22.5 C10.0824456,22.1379218 9.9290073,21.5953594 10.0652739,21.086557 C10.2015406,20.5777546 10.6056073,20.1845023 11.1179184,20.0620856 C11.6302294,19.9396688 12.1684307,20.1077661 12.52,20.5 L17.1525,25.2575 L27.6125,14.6825 C27.9728917,14.3180891 28.5003182,14.1736262 28.9961031,14.303529 C29.4918881,14.4334319 29.8807099,14.8179653 30.0161032,15.3122791 C30.1514964,15.8065929 30.0128917,16.3355891 29.6525,16.7 L29.65,16.7 Z" transform="translate(2 2)" fill="url(#h0mhjdd89__vzmwbjpgpa)" fill-rule="nonzero"/>
</svg>
