<svg xmlns="http://www.w3.org/2000/svg" viewBox="0 0 30 20" class="design-iconfont">
  <defs>
    <linearGradient id="gradient" x1="7.45166965%" y1="72.26282%" x2="93.912827%" y2="27.73718%">
      <stop stop-color="#FF3411" offset="0%" />
      <stop stop-color="#FA5B3D" offset="100%" />
    </linearGradient>
  </defs>
  <g fill="none" fill-rule="evenodd">
    <path
      d="M7.04801537,0 L27.3451403,0 C28.4497098,-2.16501571e-15 29.3451403,0.8954305 29.3451403,2 C29.3451403,2.17997803 29.3208467,2.35913255 29.2729175,2.53261132 L24.8523959,18.5326113 C24.6128682,19.3995776 23.8240652,20 22.9246186,20 L2.62749371,20 C1.52292421,20 0.627493714,19.1045695 0.627493714,18 C0.627493714,17.820022 0.651787282,17.6408675 0.69971645,17.4673887 L5.12023811,1.46738868 C5.35976581,0.600422381 6.14856883,6.09314859e-16 7.04801537,0 Z"
      fill="url(#gradient)" />
    <path fill="#FFF" fill-rule="nonzero"
      d="M23 4.00828586L17.2663395 4 11.5844301 11.7141378 11.5844301 4.00828586 7 4.00828586 7 5.33816675 8.14744591 5.33816675 8.14744591 20 11.5844301 20z" />
  </g>
</svg>
