<svg xmlns="http://www.w3.org/2000/svg" width="52" height="52"><g fill="none" fill-rule="nonzero" opacity=".501"><path fill="#333" d="M26 1a2.273 2.273 0 0 1 2.273 2.273v6.818a2.273 2.273 0 0 1-4.546 0V3.273A2.273 2.273 0 0 1 26 1Z"/><path fill="#444" d="M38.5 4.349a2.273 2.273 0 0 1 .832 3.104l-3.41 5.906a2.273 2.273 0 1 1-3.936-2.273l3.41-5.905a2.273 2.273 0 0 1 3.104-.832Z"/><path fill="#555" d="M47.651 13.5a2.273 2.273 0 0 1-.832 3.105l-5.905 3.409a2.273 2.273 0 0 1-2.273-3.937l5.906-3.409a2.273 2.273 0 0 1 3.104.832Z"/><path fill="#666" d="M51 26a2.273 2.273 0 0 1-2.273 2.273H41.91a2.273 2.273 0 0 1 0-4.546h6.818A2.273 2.273 0 0 1 51 26Z"/><path fill="#777" d="M47.651 38.5a2.273 2.273 0 0 1-3.104.832l-5.906-3.41a2.273 2.273 0 1 1 2.273-3.936l5.905 3.41a2.273 2.273 0 0 1 .832 3.104Z"/><path fill="#888" d="M38.5 47.651a2.273 2.273 0 0 1-3.105-.832l-3.409-5.905a2.273 2.273 0 0 1 3.937-2.273l3.409 5.906a2.273 2.273 0 0 1-.832 3.104Z"/><path fill="#999" d="M26 51a2.273 2.273 0 0 1-2.273-2.273V41.91a2.273 2.273 0 0 1 4.546 0v6.818A2.273 2.273 0 0 1 26 51Z"/><path fill="#AEAEAE" d="M13.5 47.651a2.273 2.273 0 0 1-.832-3.104l3.41-5.906a2.273 2.273 0 1 1 3.936 2.273l-3.41 5.905a2.273 2.273 0 0 1-3.104.832Z"/><path fill="#B9B9B9" d="M4.349 38.5a2.273 2.273 0 0 1 .832-3.105l5.905-3.409a2.273 2.273 0 0 1 2.273 3.937l-5.906 3.409A2.273 2.273 0 0 1 4.35 38.5Z"/><path fill="#C5C5C5" d="M1 26a2.273 2.273 0 0 1 2.273-2.273h6.818a2.273 2.273 0 0 1 0 4.546H3.273A2.273 2.273 0 0 1 1 26Z"/><path fill="#CDCDCD" d="M4.349 13.5a2.273 2.273 0 0 1 3.104-.832l5.906 3.41a2.273 2.273 0 1 1-2.273 3.936l-5.905-3.41a2.273 2.273 0 0 1-.832-3.104Z"/><path fill="#EAEAEA" d="M13.5 4.349a2.273 2.273 0 0 1 3.105.832l3.409 5.905a2.273 2.273 0 0 1-3.937 2.273l-3.409-5.906A2.273 2.273 0 0 1 13.5 4.35Z"/></g></svg>
